<svg xmlns="http://www.w3.org/2000/svg" width="18" height="18" viewBox="0 0 48 48">
  <path fill="#EA4335" d="M24 9.5c3.54 0 6.71 1.22 9.21 3.6l6.85-6.85C35.9 2.38 30.31 0 24 0 14.62 0 6.51 5.41 2.56 13.26l7.98 6.2C12.48 13.17 17.74 9.5 24 9.5z"/>
  <path fill="#4285F4" d="M46.5 24.5c0-1.57-.14-3.08-.4-4.5H24v9.03h12.65c-.55 2.96-2.21 5.47-4.73 7.16l7.43 5.77C43.68 37.85 46.5 31.74 46.5 24.5z"/>
  <path fill="#FBBC05" d="M10.54 28.94a14.83 14.83 0 0 1-.77-4.44c0-1.54.28-3.04.77-4.44l-7.98-6.2A23.9 23.9 0 0 0 0 24.5c0 3.92.94 7.63 2.56 10.94l7.98-6.2z"/>
  <path fill="#34A853" d="M24 48c6.31 0 11.62-2.08 15.49-5.65l-7.43-5.77c-2.06 1.39-4.7 2.22-8.06 2.22-6.26 0-11.52-3.67-13.45-8.97l-7.98 6.2C6.51 42.59 14.62 48 24 48z"/>
  <path fill="none" d="M0 0h48v48H0z"/>
</svg>
